<?xml version="1.0" encoding="UTF-8"?>
<svg width="40px" height="40px" viewBox="0 0 40 40" version="1.1" xmlns="http://www.w3.org/2000/svg" xmlns:xlink="http://www.w3.org/1999/xlink">
    <title>Group 10</title>
    <defs>
        <linearGradient x1="92.3862152%" y1="50%" x2="21.4056483%" y2="50%" id="linearGradient-1">
            <stop stop-color="#79BAF0" offset="0%"></stop>
            <stop stop-color="#067CDE" offset="100%"></stop>
        </linearGradient>
        <polygon id="path-2" points="0 5.07614213e-05 9.99857868 5.07614213e-05 9.99857868 16.4691347 0 16.4691347"></polygon>
    </defs>
    <g id="Page-1" stroke="none" stroke-width="1" fill="none" fill-rule="evenodd">
        <g id="Desktop-HD" transform="translate(-342.000000, -1477.000000)">
            <g id="Group-4" transform="translate(-274.000000, 772.000000)">
                <g id="Group-10" transform="translate(616.000000, 705.000000)">
                    <circle id="Oval-Copy-2" fill="url(#linearGradient-1)" opacity="0.836449033" cx="20" cy="20" r="20"></circle>
                    <g id="Group-3-Copy" transform="translate(18.000000, 19.738579) rotate(180.000000) translate(-18.000000, -19.738579) translate(13.000000, 11.500000)">
                        <mask id="mask-3" fill="white">
                            <use xlink:href="#path-2"></use>
                        </mask>
                        <g id="Clip-2"></g>
                        <path d="M6.15123046,8.23168629 C6.0303269,8.14367614 5.9574132,8.10406193 5.9012203,8.04774721 C4.05326091,6.19619391 2.20710863,4.34282335 0.359941117,2.49046802 C0.191169543,2.32122944 0.0519614213,2.13890457 0.018022335,1.89183858 C-0.0268203046,1.56548325 0.0879411168,1.30158477 0.316316751,1.07585888 C0.569149239,0.825950254 0.818519797,0.572539086 1.07094619,0.322224365 C1.50497665,-0.10820203 2.01533198,-0.107998985 2.45113909,0.326792893 C4.67344365,2.5439198 6.89486497,4.76192995 9.11593096,6.98028528 C9.33886497,7.20294518 9.56683452,7.42164569 9.77568731,7.65705685 C10.0828244,8.0032802 10.068398,8.50365584 9.75803249,8.84844772 C9.72216447,8.88829543 9.68366701,8.92581827 9.64569746,8.96371675 C7.26279391,11.3427624 4.87872284,13.7206406 2.49843858,16.1023157 C2.24177868,16.3591279 1.96036751,16.5408741 1.58894619,16.4415442 C1.42145381,16.3967624 1.25060102,16.3049249 1.12114924,16.1896558 C0.83106802,15.9313817 0.561667005,15.649199 0.291738071,15.3691482 C-0.0881299492,14.9750162 -0.0959979695,14.5040924 0.262073096,14.0875746 C0.310062944,14.0317371 0.362682234,13.9797472 0.41471269,13.9275239 C2.24691574,12.0886609 4.07911878,10.2498081 5.91260102,8.41223452 C5.96426599,8.36045787 6.02992081,8.32263046 6.15123046,8.23168629" id="Fill-1" fill="#FFFFFF" mask="url(#mask-3)"></path>
                    </g>
                </g>
            </g>
        </g>
    </g>
</svg>