<?xml version="1.0" encoding="UTF-8"?>
<svg width="18px" height="18px" viewBox="0 0 18 18" version="1.1" xmlns="http://www.w3.org/2000/svg" xmlns:xlink="http://www.w3.org/1999/xlink">
    <title>Shape</title>
    <g id="Page-1" stroke="none" stroke-width="1" fill="none" fill-rule="evenodd">
        <g id="Desktop-HD" transform="translate(-1376.000000, -388.000000)" fill="#FFFFFF" fill-rule="nonzero">
            <path d="M1379.97895,406 L1376.28421,406 L1376.28421,394 L1379.97895,394 L1379.97895,406 Z M1378.17895,392.380952 C1376.94737,392.380952 1376,391.333333 1376,390.190476 C1376,389.047619 1376.94737,388 1378.17895,388 C1379.41053,388 1380.35789,388.952381 1380.35789,390.190476 C1380.35789,391.428571 1379.31579,392.380952 1378.17895,392.380952 Z M1393.90526,406 L1390.21053,406 L1390.21053,400.190476 C1390.21053,398.761905 1390.21053,397.047619 1388.31579,397.047619 C1386.42105,397.047619 1386.13684,398.571429 1386.13684,400.095238 L1386.13684,406 L1382.34737,406 L1382.34737,394 L1385.94737,394 L1385.94737,395.619048 L1386.04211,395.619048 C1386.51579,394.666667 1387.74737,393.714286 1389.54737,393.714286 C1393.33684,393.714286 1394,396.190476 1394,399.428571 L1393.90526,406 L1393.90526,406 Z" id="Shape"></path>
        </g>
    </g>
</svg>