<?xml version="1.0" encoding="UTF-8"?>
<svg width="20px" height="16px" viewBox="0 0 20 16" version="1.1" xmlns="http://www.w3.org/2000/svg" xmlns:xlink="http://www.w3.org/1999/xlink">
    <title>Shape</title>
    <g id="Page-1" stroke="none" stroke-width="1" fill="none" fill-rule="evenodd">
        <g id="Desktop-HD" transform="translate(-1375.000000, -242.000000)" fill="#FFFFFF" fill-rule="nonzero">
            <path d="M1392.91045,246.02454 C1392.91045,246.220859 1392.91045,246.417178 1392.91045,246.515337 C1392.91045,251.815951 1388.83085,258 1381.26866,258 C1378.9801,258 1376.79104,257.312883 1375,256.233129 C1375.29851,256.233129 1375.59701,256.331288 1375.99502,256.331288 C1377.88557,256.331288 1379.67662,255.742331 1381.06965,254.564417 C1379.27861,254.564417 1377.78607,253.386503 1377.28856,251.815951 C1377.58706,251.815951 1377.78607,251.91411 1378.08458,251.91411 C1378.48259,251.91411 1378.78109,251.815951 1379.1791,251.815951 C1377.28856,251.423313 1375.89552,249.852761 1375.89552,247.889571 L1375.89552,247.595092 C1376.49254,247.889571 1377.08955,248.08589 1377.78607,248.08589 C1376.69154,247.398773 1375.99502,246.122699 1375.99502,244.748466 C1375.99502,243.96319 1376.19403,243.276074 1376.59204,242.687117 C1378.58209,245.141104 1381.66667,246.711656 1385.04975,246.907975 C1384.85075,246.613497 1384.75124,246.319018 1384.75124,246.02454 C1384.75124,243.766871 1386.54229,242 1388.83085,242 C1390.02488,242 1391.0199,242.490798 1391.81592,243.276074 C1392.71144,243.079755 1393.60697,242.785276 1394.40299,242.294479 C1394.10448,243.276074 1393.40796,244.06135 1392.61194,244.552147 C1393.40796,244.453988 1394.20398,244.257669 1395,243.96319 C1394.40299,244.650307 1393.70647,245.435583 1392.91045,246.02454 Z" id="Shape"></path>
        </g>
    </g>
</svg>