<?xml version="1.0" encoding="UTF-8"?>
<svg width="133px" height="42px" viewBox="0 0 133 42" version="1.1" xmlns="http://www.w3.org/2000/svg" xmlns:xlink="http://www.w3.org/1999/xlink">
    <title>logo-illustre</title>
    <g id="Page-1" stroke="none" stroke-width="1" fill="none" fill-rule="evenodd">
        <g id="Desktop-HD" transform="translate(-180.000000, -107.000000)">
            <g id="logo-illustre" transform="translate(180.000000, 107.000000)">
                <rect id="Rectangle" fill="#E3012C" x="0" y="0" width="132.739793" height="41.8068966"></rect>
                <polygon id="Path" fill="#FFFFFF" fill-rule="nonzero" points="6.86241379 34.9411034 6.86241379 6.86096552 12.2456552 6.86096552 12.2456552 29.246 17.7573103 29.246 17.7573103 34.9411034"></polygon>
                <polygon id="Path" fill="#FFFFFF" fill-rule="nonzero" points="15.7789655 18.5282759 15.3275862 6.86096552 19.9693103 6.86096552 19.517931 18.5282759"></polygon>
                <rect id="Rectangle" fill="#FFFFFF" fill-rule="nonzero" x="23.0512414" y="6.86096552" width="5.38275862" height="28.0806207"></rect>
                <polygon id="Path" fill="#FFFFFF" fill-rule="nonzero" points="29.835931 34.9411034 29.835931 6.86096552 35.2191724 6.86096552 35.2191724 29.246 40.7308276 29.246 40.7308276 34.9411034"></polygon>
                <polygon id="Path" fill="#FFFFFF" fill-rule="nonzero" points="42.0627586 34.9411034 42.0627586 6.86096552 47.446 6.86096552 47.446 29.246 52.9576552 29.246 52.9576552 34.9411034"></polygon>
                <path d="M54.1114483,6.86096552 L59.4942069,6.86096552 L59.4942069,27.5061379 C59.4942069,29.2064138 60.0421379,30.0763448 61.138,30.0763448 C62.2662069,30.0763448 62.8141379,29.2064138 62.8141379,27.5061379 L62.8141379,6.86096552 L68.1655172,6.86096552 L68.1655172,27.7426897 C68.1655172,32.6866207 65.6184828,35.6131034 61.138,35.6131034 C56.6251724,35.6131034 54.1109655,32.6866207 54.1109655,27.7426897 L54.1114483,6.86096552 L54.1114483,6.86096552 Z" id="Path" fill="#FFFFFF" fill-rule="nonzero"></path>
                <path d="M69.4293793,27.7827586 L69.4293793,25.5678621 L74.9077241,24.302069 L74.9077241,27.8223448 C74.9077241,29.6809655 75.4242759,30.630069 76.455931,30.630069 C77.4552414,30.630069 77.9389655,29.9175172 77.9389655,28.4938621 L77.9389655,27.2676552 C77.9389655,25.8449655 77.6473793,25.2106207 76.4868276,24.3011034 L72.8135172,21.6121379 C70.491931,19.9123448 69.6229655,17.934 69.6229655,14.77 L69.6229655,13.2671724 C69.6229655,10.934 70.2669655,9.15406897 71.555931,7.96744828 C72.8777241,6.78082759 74.4901379,6.18751724 76.455931,6.18751724 C80.8712414,6.18751724 83.4182759,8.32372414 83.4182759,13.662069 L83.4182759,15.7186207 L78.0345517,16.9052414 L78.0345517,13.5042069 C78.0345517,11.844 77.5204138,11.0126897 76.455931,11.0126897 C75.5526897,11.0126897 75.0047586,11.844 75.0047586,12.9509655 L75.0047586,14.1375862 C75.0047586,15.2450345 75.4884828,16.1545517 76.455931,16.8661379 L80.0983448,19.516 C82.6448966,21.3746207 83.4182759,23.1149655 83.4182759,26.1211034 L83.4182759,28.7308966 C83.4182759,32.7257241 80.8393793,35.6121382 76.4231034,35.6121382 C72.0724828,35.6131034 69.4293793,32.4886897 69.4293793,27.7827586" id="Path" fill="#FFFFFF" fill-rule="nonzero"></path>
                <polygon id="Path" fill="#FFFFFF" fill-rule="nonzero" points="97.5172414 6.86096552 97.5172414 12.5633103 93.6889655 12.5633103 93.6889655 34.9411034 88.3371034 34.9411034 88.3129655 12.5522069 84.5006207 12.5522069 84.4837241 6.87206897"></polygon>
                <path d="M107.63731,34.944 L105.491448,23.7908276 L104.210207,23.7908276 L104.210207,34.944 L98.8617241,34.944 L98.8617241,6.86386207 L105.524276,6.86386207 C110.329172,6.86386207 112.732345,9.47365517 112.732345,14.6546207 L112.732345,15.8016552 C112.732345,18.8478621 111.867724,20.9826207 110.169862,22.1687586 L113.21269,34.9435172 L107.63731,34.944 L107.63731,34.944 Z M104.209724,19.7568966 L105.139517,19.7568966 C106.677586,19.7568966 107.22069,18.7281379 107.22069,16.2366207 L107.22069,14.2597241 C107.22069,12.0448276 106.677586,11.2531034 105.139517,11.2531034 L104.209724,11.2531034 L104.209724,19.7568966 Z" id="Shape" fill="#FFFFFF" fill-rule="nonzero"></path>
                <path d="M119.854966,29.246 L125.882207,29.246 L125.882207,34.9435172 L114.471724,34.9435172 L114.471724,6.86289655 L125.887034,6.86917241 L125.876897,12.5522069 L119.855448,12.5522069 L119.855448,18.0155862 L125.231931,18.0083448 L125.231931,22.9542069 L119.855448,22.9590345 L119.855448,29.246 L119.854966,29.246 Z M124.688345,3.94510345 L121.078759,8.49268966 L116.598276,8.49268966 L119.595724,3.94510345 L124.688345,3.94510345 Z" id="Shape" fill="#FFFFFF" fill-rule="nonzero"></path>
            </g>
        </g>
    </g>
</svg>